<?xml version="1.0" standalone="no"?><!DOCTYPE svg PUBLIC "-//W3C//DTD SVG 1.1//EN" "http://www.w3.org/Graphics/SVG/1.1/DTD/svg11.dtd"><svg t="1581484433790" class="icon" viewBox="0 0 1024 1024" version="1.1" xmlns="http://www.w3.org/2000/svg" p-id="2025" xmlns:xlink="http://www.w3.org/1999/xlink" width="200" height="200"><defs><style type="text/css"></style></defs><path d="M456.3 180.6H217.4c-18.5 0-33.5 15-33.5 33.5V453c0 18.5 15 33.5 33.5 33.5h238.9c18.5 0 33.5-15 33.5-33.5V214.1c0-18.5-15-33.5-33.5-33.5zM815.6 180.6H576.8c-18.5 0-33.5 15-33.5 33.5V453c0 18.5 15 33.5 33.5 33.5h238.9c18.5 0 33.5-15 33.5-33.5V214.1c-0.1-18.5-15.1-33.5-33.6-33.5zM456.3 540H217.4c-18.5 0-33.5 15-33.5 33.5v238.9c0 18.5 15 33.5 33.5 33.5h238.9c18.5 0 33.5-15 33.5-33.5V573.5c0-18.5-15-33.5-33.5-33.5zM815.6 540H576.8c-18.5 0-33.5 15-33.5 33.5v238.9c0 18.5 15 33.5 33.5 33.5h238.9c18.5 0 33.5-15 33.5-33.5V573.5c-0.1-18.5-15.1-33.5-33.6-33.5z" fill="#3259CE" p-id="2026"></path></svg>